<?xml version="1.0" encoding="UTF-8"?>
<svg id="Camada_1" xmlns="http://www.w3.org/2000/svg" version="1.1" viewBox="0 0 551.38 297.41">
  <!-- Generator: Adobe Illustrator 29.5.1, SVG Export Plug-In . SVG Version: 2.1.0 Build 141)  -->
  <defs>
    <style>
      .st0 {
        fill: #f4c90b;
      }

      .st1 {
        fill: #fff;
      }
    </style>
  </defs>
  <polygon class="st1" points="81.39 136.61 80.75 136.61 32.37 1.77 1.53 1.77 1.53 225.53 33.6 225.53 33.6 91.05 34.24 91.05 83.25 225.53 113.41 225.53 113.41 1.77 81.39 1.77 81.39 136.61"/>
  <rect class="st1" x="143.31" y="1.75" width="32.02" height="223.81"/>
  <polygon class="st1" points="190.45 31.92 227.53 31.92 227.53 225.53 259.6 225.53 259.6 31.92 296.69 31.92 296.69 1.77 190.45 1.77 190.45 31.92"/>
  <path class="st1" d="M385.95,81.76c-.46,3.78-1.64,7.47-3.42,10.84-1.91,3.01-4.65,5.38-7.88,6.83-4.33,1.78-8.97,2.6-13.67,2.37h-18.08V31.92h16.63c11.12,0,18.68,2.92,22.64,8.84,2,3.42,3.28,7.2,3.78,11.12.68,4.97,1,9.93.96,14.94.04,4.97-.27,9.98-.96,14.94M412.83,101.08c4.37-10.66,6.42-22.09,6.1-33.62,0-43.78-18.86-65.69-56.58-65.69h-51.52v223.76h32.07v-95.66h19.18l29.84,95.66h33.94l-34.58-102.18c9.48-4.78,17.08-12.66,21.55-22.28"/>
  <path class="st1" d="M533.37,13.38c-5.19-4.33-11.12-7.7-17.45-9.93-5.01-1.87-10.25-3.01-15.58-3.42v32.21c4.28.64,8.29,2.51,11.48,5.38,4.65,4.42,7.02,10.71,6.47,17.08v118.17c.04,2.64-.27,5.28-.91,7.84,8.25,7.65,16.35,15.49,24.19,23.46,1.55-2.28,2.87-4.65,4.05-7.06,3.33-7.65,4.97-15.9,4.74-24.24V54.7c.14-8.25-1.46-16.4-4.74-23.92-2.87-6.56-7.06-12.53-12.25-17.4"/>
  <path class="st1" d="M511.84,189.87c-8.84,7.33-21.64,7.33-30.52,0-4.6-4.42-6.92-10.71-6.42-17.08V54.67c-.5-6.33,1.87-12.62,6.42-17.08,3.37-2.87,7.52-4.69,11.94-5.19V0c-5.47.41-10.84,1.55-15.99,3.42-6.29,2.28-12.07,5.69-17.08,10.07-5.38,4.78-9.7,10.66-12.62,17.27-3.28,7.56-4.87,15.72-4.69,23.92v118.21c-.27,8.34,1.37,16.58,4.69,24.24,2.92,6.38,7.2,12.07,12.53,16.67,4.97,4.46,10.8,7.97,17.08,10.25,12.48,4.56,26.19,4.56,38.68,0,6.42-2.28,12.34-5.79,17.45-10.25,1.64-1.46,3.19-3.01,4.65-4.69-7.56-7.61-15.21-15.08-23.1-22.37-.87,1.18-1.87,2.23-3.01,3.14"/>
  <g>
    <path class="st0" d="M3.42,292.28v-39.98l-.07-5.13h12.65c11.24,0,13.98,6.67,13.98,14.97v.14c0,8.29-2.74,14.97-13.98,14.97h-3.65v15.04l.07,5.13H3.35l.07-5.13h0ZM14.87,269.38c4.85,0,5.9-3.09,5.9-7.1v-.14c0-4.01-1.05-7.1-5.9-7.1h-2.53v14.33h2.53Z"/>
    <path class="st0" d="M43.33,276.75v15.53l.07,5.13h-9.06l.07-5.13v-39.98l-.07-5.13h12.65c11.24,0,13.98,6.67,13.98,14.83v.14c0,5.27-1.48,9.84-5.62,12.44l6.75,22.84h-9.56l-5.76-20.66h-3.45ZM43.33,269.09h2.39c5.06,0,6.04-3.16,6.04-7.03v-.07c0-3.87-1.05-6.96-5.9-6.96h-2.53v14.05h0Z"/>
    <path class="st0" d="M71.15,295.37c-2.81-2.46-4.36-6.39-4.36-16.58v-13c0-10.19,1.55-14.12,4.36-16.58,2.18-1.9,5.27-2.88,8.92-2.88s6.82.98,8.99,2.88c2.81,2.46,4.36,6.39,4.36,16.58v13c0,10.19-1.55,14.12-4.36,16.58-2.18,1.9-5.27,2.88-8.99,2.88s-6.75-.98-8.92-2.88ZM84.36,280.76v-16.93c0-5.2,0-9.13-4.29-9.13s-4.22,3.93-4.22,9.13v16.93c0,5.2,0,9.13,4.22,9.13s4.29-3.93,4.29-9.13Z"/>
    <path class="st0" d="M122.58,250.05c3.09,2.6,4.36,6.32,4.36,14.26v15.95c0,7.94-1.27,11.67-4.36,14.26-2.11,1.83-4.99,2.88-8.64,2.88h-13.49l.07-5.13v-39.98l-.07-5.13h13.49c3.65,0,6.53,1.05,8.64,2.88h0ZM109.44,255.04v34.5h3.09c4.15,0,5.34-2.74,5.34-6.82v-20.87c0-3.79-1.12-6.82-5.34-6.82h-3.09Z"/>
    <path class="st0" d="M160.17,247.17l-.07,5.13v32.46c0,8.64-5.06,13.49-13.21,13.49s-13.14-4.85-13.14-13.49v-32.46l-.07-5.13h9.06l-.07,5.13v31.48c0,3.93,1.05,6.11,4.22,6.11s4.29-2.18,4.29-6.11v-31.48l-.07-5.13h9.06Z"/>
    <path class="st0" d="M182.09,255.04v37.24l.07,5.13h-8.99l.07-5.13v-37.24h-8.85v-7.87h26.63v7.87h-8.93Z"/>
    <path class="st0" d="M198.39,295.37c-2.81-2.46-4.36-6.39-4.36-16.58v-13c0-10.19,1.55-14.12,4.36-16.58,2.18-1.9,5.27-2.88,8.92-2.88s6.82.98,8.99,2.88c2.81,2.46,4.36,6.39,4.36,16.58v13c0,10.19-1.55,14.12-4.36,16.58-2.18,1.9-5.27,2.88-8.99,2.88s-6.75-.98-8.92-2.88ZM211.6,280.76v-16.93c0-5.2,0-9.13-4.29-9.13s-4.22,3.93-4.22,9.13v16.93c0,5.2,0,9.13,4.22,9.13s4.29-3.93,4.29-9.13Z"/>
    <path class="st0" d="M236.68,276.75v15.53l.07,5.13h-9.06l.07-5.13v-39.98l-.07-5.13h12.65c11.24,0,13.98,6.67,13.98,14.83v.14c0,5.27-1.48,9.84-5.62,12.44l6.75,22.84h-9.56l-5.76-20.66h-3.45ZM236.68,269.09h2.39c5.06,0,6.04-3.16,6.04-7.03v-.07c0-3.87-1.05-6.96-5.9-6.96h-2.53v14.05h0Z"/>
    <path class="st0" d="M266.47,297.41h-9.21l9.06-50.24h12.23l9.06,50.24h-9.06l-1.69-10.26h-8.78l-1.62,10.26h0ZM269.35,279.07h6.25l-2.11-13.21c-.35-2.39-.7-5.62-.84-7.38h-.42c-.07,1.76-.49,4.99-.84,7.38l-2.04,13.21Z"/>
  </g>
</svg>